<svg xmlns="http://www.w3.org/2000/svg" xmlns:xlink="http://www.w3.org/1999/xlink" xmlns:inkscape="http://www.inkscape.org/namespaces/inkscape" version="1.1" width="276.17" height="82.488" viewBox="0 0 276.17 82.488">
<text xml:space="preserve" transform="matrix(1 0 -0 1 -.0000076293949 82.488)" font-size="4.9813" font-family="Computer Modern"><tspan y="-32.912" x="86.878 89.577869 92.62144 94.803249 96.81071 99.85428 102.89785 105.59772">reflect(</tspan></text>
<text xml:space="preserve" transform="matrix(1 0 -0 1 -.0000076293949 82.488)" font-size="4.9813" font-family="Computer Modern" font-style="italic"><tspan y="-32.912" x="108.297588">P</tspan></text>
<text xml:space="preserve" transform="matrix(1 0 -0 1 -.0000076293949 82.488)" font-size="4.9813" font-family="Computer Modern"><tspan y="-32.912" x="113.522968">)</tspan></text>
<path transform="matrix(1,0,0,-1,175.297,45.736)" stroke-width=".242" stroke-linecap="butt" stroke-miterlimit="10" stroke-linejoin="miter" fill="none" stroke="#000000" d="M0 0H11.955"/>
<text xml:space="preserve" transform="matrix(1 0 -0 1 0 82.488)" font-size="4.9813" font-family="Computer Modern"><tspan y="-32.446" x="175.297 179.78017 183.51615 187.25212">End(</tspan></text>
<text xml:space="preserve" transform="matrix(1 0 -0 1 0 82.488)" font-size="4.9813" font-family="Computer Modern" font-style="italic"><tspan y="-32.446" x="189.95198">P</tspan></text>
<text xml:space="preserve" transform="matrix(1 0 -0 1 0 82.488)" font-size="4.9813" font-family="Computer Modern"><tspan y="-32.446" x="195.17737">)</tspan></text>
<text fill="#0000ff" xml:space="preserve" transform="matrix(1 0 -0 1 0 82.488)" font-size="4.9813" font-family="Computer Modern"><tspan y="-75.432" x="122.868 126.60397 130.33995 134.07593 139.99869 143.39096 147.12694">SubMon(</tspan></text>
<text fill="#0000ff" xml:space="preserve" transform="matrix(1 0 -0 1 0 82.488)" font-size="4.9813" font-family="Computer Modern" font-style="italic"><tspan y="-75.432" x="149.8268 154.35979">P,</tspan></text>
<text fill="#0000ff" xml:space="preserve" transform="matrix(1 0 -0 1 0 82.488)" font-size="4.9813" font-family="Computer Modern" font-style="italic"><tspan y="-75.432" x="157.86164">&#x2227;</tspan></text>
<text fill="#0000ff" xml:space="preserve" transform="matrix(1 0 -0 1 0 82.488)" font-size="4.9813" font-family="Computer Modern"><tspan y="-75.432" x="162.56897">)</tspan></text>
<text xml:space="preserve" transform="matrix(1 0 -0 1 -.000011444092 82.48801)" font-size="4.9813" font-family="Computer Modern"><tspan y="-4.566" x="10.951 13.994575 17.38684 21.695666 23.703129 27.439105 30.13897 33.531236 37.092866 39.79273">coFibrant(</tspan></text>
<text xml:space="preserve" transform="matrix(1 0 -0 1 -.000011444092 82.48801)" font-size="4.9813" font-family="Computer Modern" font-style="italic"><tspan y="-4.566" x="42.49259">P</tspan></text>
<text xml:space="preserve" transform="matrix(1 0 -0 1 -.000011444092 82.48801)" font-size="4.9813" font-family="Computer Modern"><tspan y="-4.566" x="47.717977">)</tspan></text>
<text fill="#0000ff" xml:space="preserve" transform="matrix(1 0 -0 1 -.0000038146974 82.488)" font-size="4.9813" font-family="Computer Modern"><tspan y="-32.912" x="17.742 20.785576 24.177842 26.912575 30.30484 33.004705">cosat(</tspan></text>
<text fill="#0000ff" xml:space="preserve" transform="matrix(1 0 -0 1 -.0000038146974 82.488)" font-size="4.9813" font-family="Computer Modern" font-style="italic"><tspan y="-32.912" x="35.704568">P</tspan></text>
<text fill="#0000ff" xml:space="preserve" transform="matrix(1 0 -0 1 -.0000038146974 82.488)" font-size="4.9813" font-family="Computer Modern"><tspan y="-32.912" x="40.924974">)</tspan></text>
<text xml:space="preserve" transform="matrix(1 0 -0 1 -.0000009536743 82.488)" font-size="4.9813" font-family="Computer Modern"><tspan y="-60.461" x="3.321 8.785486 10.79295">min</tspan></text>
<text xml:space="preserve" transform="matrix(1 0 -0 1 -.0000009536743 82.488)" font-size="4.9813" font-family="Computer Modern" font-style="italic"><tspan y="-60.461" x="14.528925 18.195162 24.939843">{&#x2208;{</tspan></text>
<text xml:space="preserve" transform="matrix(1 0 -0 1 -.0000009536743 82.488)" font-size="4.9813" font-family="Computer Modern" font-style="italic"><tspan y="-60.461" x="28.60608">&#x03bb;</tspan></text>
<text xml:space="preserve" transform="matrix(1 0 -0 1 -.0000009536743 82.488)" font-size="4.9813" font-family="Computer Modern" font-style="italic"><tspan y="-62.470998" x="32.79">&#x2212;</tspan></text>
<text xml:space="preserve" transform="matrix(1 0 -0 1 -.0000009536743 82.488)" font-size="4.9813" font-family="Computer Modern"><tspan y="-62.470998" x="38.18475">1</tspan><tspan y="-60.461" x="42.075">(</tspan></text>
<text xml:space="preserve" transform="matrix(1 0 -0 1 -.0000009536743 82.488)" font-size="4.9813" font-family="Computer Modern" font-style="italic"><tspan y="-60.461" x="44.774866">c</tspan></text>
<text xml:space="preserve" transform="matrix(1 0 -0 1 -.0000009536743 82.488)" font-size="4.9813" font-family="Computer Modern"><tspan y="-60.461" x="48.00773">)</tspan></text>
<text xml:space="preserve" transform="matrix(1 0 -0 1 -.0000009536743 82.488)" font-size="4.9813" font-family="Computer Modern" font-style="italic"><tspan y="-60.461" x="50.707593 54.37383">}}</tspan></text>
<text xml:space="preserve" transform="matrix(1 0 -0 1 -.000015258789 82.488)" font-size="4.9813" font-family="Computer Modern"><tspan y="-32.912" x="242.054 247.97676 251.36904 255.10501 258.49729 262.23326">Monad(</tspan></text>
<text xml:space="preserve" transform="matrix(1 0 -0 1 -.000015258789 82.488)" font-size="4.9813" font-family="Computer Modern" font-style="italic"><tspan y="-32.912" x="264.9331">P</tspan></text>
<text xml:space="preserve" transform="matrix(1 0 -0 1 -.000015258789 82.488)" font-size="4.9813" font-family="Computer Modern"><tspan y="-32.912" x="270.1535">)</tspan></text>
<path transform="matrix(1,0,0,-1,144.066,-8.362999)" stroke-width=".3985" stroke-linecap="butt" stroke-miterlimit="10" stroke-linejoin="miter" fill="none" stroke="#000000" d="M-61.1667-56.69362H-96.47035"/>
<path transform="matrix(1,0,0,-1,82.89929,48.33062)" stroke-width=".31879" stroke-linecap="round" stroke-linejoin="round" fill="none" stroke="#000000" d="M-1.19551 1.59401C-1.09587 .99626 0 .09961 .29886 0 0-.09961-1.09587-.99626-1.19551-1.59401"/>
<path transform="matrix(-1,-0,0,1,47.595643,48.33062)" stroke-width=".31879" stroke-linecap="round" stroke-linejoin="round" fill="none" stroke="#000000" d="M-1.19551 1.59401C-1.09587 .99626 0 .09961 .29886 0 0-.09961-1.09587-.99626-1.19551-1.59401"/>
<path transform="matrix(1,0,0,-1,144.066,-8.362999)" stroke-width=".3985" stroke-linecap="butt" stroke-miterlimit="10" stroke-linejoin="miter" fill="none" stroke="#000000" d="M-57.97179-62.87428-97.93765-78.85971"/>
<path transform="matrix(.92845,-.37135,-.37135,-.92845,86.09421,54.5113)" stroke-width=".31879" stroke-linecap="round" stroke-linejoin="round" fill="none" stroke="#000000" d="M-1.19551 1.59401C-1.09587 .99626 0 .09961 .29886 0 0-.09961-1.09587-.99626-1.19551-1.59401"/>
<path transform="matrix(-.92845,.37135,.37135,.92845,46.12834,70.496707)" stroke-width=".31879" stroke-linecap="round" stroke-linejoin="round" fill="none" stroke="#000000" d="M-1.19551 1.59401C-1.09587 .99626 0 .09961 .29886 0 0-.09961-1.09587-.99626-1.19551-1.59401"/>
<path transform="matrix(1,0,0,-1,144.066,-8.362999)" stroke-width=".3985" stroke-linecap="butt" stroke-miterlimit="10" stroke-linejoin="miter" fill="none" stroke="#000000" d="M-57.97078-50.51292-95.94405-35.32503"/>
<path transform="matrix(.92845,.37132,.37132,-.92845,86.095218,42.14991)" stroke-width=".31879" stroke-linecap="round" stroke-linejoin="round" fill="none" stroke="#000000" d="M-1.19551 1.59401C-1.09587 .99626 0 .09961 .29886 0 0-.09961-1.09587-.99626-1.19551-1.59401"/>
<path transform="matrix(-.92845,-.37132,-.37132,.92845,48.12194,26.96204)" stroke-width=".31879" stroke-linecap="round" stroke-linejoin="round" fill="none" stroke="#000000" d="M-1.19551 1.59401C-1.09587 .99626 0 .09961 .29886 0 0-.09961-1.09587-.99626-1.19551-1.59401"/>
<path transform="matrix(1,0,0,-1,144.066,-8.362999)" stroke-width=".3985" stroke-linecap="butt" stroke-miterlimit="10" stroke-linejoin="miter" fill="none" stroke="#000000" d="M-23.87367-56.69362H27.2534"/>
<path transform="matrix(-1,-0,0,1,120.19232,48.33062)" stroke-width=".31879" stroke-linecap="round" stroke-linejoin="round" fill="none" stroke="#000000" d="M-1.19551 1.59401C-1.09587 .99626 0 .09961 .29886 0 0-.09961-1.09587-.99626-1.19551-1.59401"/>
<path transform="matrix(1,0,0,-1,171.3194,48.33062)" stroke-width=".31879" stroke-linecap="round" stroke-linejoin="round" fill="none" stroke="#000000" d="M-1.19551 1.59401C-1.09587 .99626 0 .09961 .29886 0 0-.09961-1.09587-.99626-1.19551-1.59401"/>
<path transform="matrix(1,0,0,-1,144.066,-8.362999)" stroke-width=".3985" stroke-linecap="butt" stroke-miterlimit="10" stroke-linejoin="miter" fill="none" stroke="#000000" d="M-36.18646-50.35905-6.33237-20.5079"/>
<path transform="matrix(-.70714,.70706,.70706,.70714,107.87955,41.99605)" stroke-width=".31879" stroke-linecap="round" stroke-linejoin="round" fill="none" stroke="#000000" d="M-1.19551 1.59401C-1.09587 .99626 0 .09961 .29886 0 0-.09961-1.09587-.99626-1.19551-1.59401"/>
<path transform="matrix(.70714,-.70706,-.70706,-.70714,137.73361,12.144901)" stroke-width=".31879" stroke-linecap="round" stroke-linejoin="round" fill="none" stroke="#000000" d="M-1.19551 1.59401C-1.09587 .99626 0 .09961 .29886 0 0-.09961-1.09587-.99626-1.19551-1.59401"/>
<path transform="matrix(1,0,0,-1,144.066,-8.362999)" stroke-width=".3985" stroke-linecap="butt" stroke-miterlimit="10" stroke-linejoin="miter" fill="none" stroke="#000000" d="M6.33327-20.50789 35.72153-49.89261"/>
<path transform="matrix(-.70714,-.70705,-.70705,.70714,150.39928,12.144901)" stroke-width=".31879" stroke-linecap="round" stroke-linejoin="round" fill="none" stroke="#000000" d="M-1.19551 1.59401C-1.09587 .99626 0 .09961 .29886 0 0-.09961-1.09587-.99626-1.19551-1.59401"/>
<path transform="matrix(.70714,.70705,.70705,-.70714,179.7875,41.529603)" stroke-width=".31879" stroke-linecap="round" stroke-linejoin="round" fill="none" stroke="#000000" d="M-1.19551 1.59401C-1.09587 .99626 0 .09961 .29886 0 0-.09961-1.09587-.99626-1.19551-1.59401"/>
<path transform="matrix(1,0,0,-1,144.066,-8.362999)" stroke-width=".3985" stroke-linecap="butt" stroke-miterlimit="10" stroke-linejoin="miter" fill="none" stroke="#000000" d="M57.78697-56.69362H94.01073"/>
<path transform="matrix(-1,-0,0,1,201.85297,48.33062)" stroke-width=".31879" stroke-linecap="round" stroke-linejoin="round" fill="none" stroke="#000000" d="M-1.19551 1.59401C-1.09587 .99626 0 .09961 .29886 0 0-.09961-1.09587-.99626-1.19551-1.59401"/>
<path transform="matrix(1,0,0,-1,238.07672,48.33062)" stroke-width=".31879" stroke-linecap="round" stroke-linejoin="round" fill="none" stroke="#000000" d="M-1.19551 1.59401C-1.09587 .99626 0 .09961 .29886 0 0-.09961-1.09587-.99626-1.19551-1.59401"/>
</svg>
