<svg xmlns="http://www.w3.org/2000/svg" xmlns:xlink="http://www.w3.org/1999/xlink" xmlns:inkscape="http://www.inkscape.org/namespaces/inkscape" version="1.1" width="425.129" height="162.991" viewBox="0 0 425.129 162.991">
<path transform="matrix(1,0,0,-1,178.428,81.495998)" stroke-width=".3985" stroke-linecap="butt" stroke-miterlimit="10" stroke-linejoin="miter" fill="none" stroke="#000000" d="M0 56.69362 49.09824 28.3468V-28.3468L0-56.69362-49.09824-28.3468V28.3468L0 56.69362"/>
<path transform="matrix(1,0,0,-1,178.428,81.495998)" d="M1.99255 56.69362C1.99255 57.79408 1.10046 58.68617 0 58.68617-1.10046 58.68617-1.99255 57.79408-1.99255 56.69362-1.99255 55.59314-1.10046 54.70107 0 54.70107 1.10046 54.70107 1.99255 55.59314 1.99255 56.69362ZM0 56.69362"/>
<path transform="matrix(1,0,0,-1,178.428,81.495998)" stroke-width=".3985" stroke-linecap="butt" stroke-miterlimit="10" stroke-linejoin="miter" fill="none" stroke="#000000" d="M1.99255 56.69362C1.99255 57.79408 1.10046 58.68617 0 58.68617-1.10046 58.68617-1.99255 57.79408-1.99255 56.69362-1.99255 55.59314-1.10046 54.70107 0 54.70107 1.10046 54.70107 1.99255 55.59314 1.99255 56.69362ZM0 56.69362"/>
<text xml:space="preserve" transform="matrix(1 0 -0 1 0 162.991)" font-size="9.9626" font-family="Computer Modern"><tspan y="-144.199" x="181.948">(</tspan></text>
<text xml:space="preserve" transform="matrix(1 0 -0 1 0 162.991)" font-size="9.9626" font-family="Computer Modern" font-style="italic"><tspan y="-144.199" x="185.82346 191.09368 195.52704">a,b</tspan></text>
<text xml:space="preserve" transform="matrix(1 0 -0 1 0 162.991)" font-size="9.9626" font-family="Computer Modern"><tspan y="-144.199" x="199.801">)</tspan></text>
<path transform="matrix(1,0,0,-1,178.428,81.495998)" d="M51.09079 28.3468C51.09079 29.44728 50.1987 30.33936 49.09824 30.33936 47.99776 30.33936 47.10568 29.44728 47.10568 28.3468 47.10568 27.24634 47.99776 26.35425 49.09824 26.35425 50.1987 26.35425 51.09079 27.24634 51.09079 28.3468ZM49.09824 28.3468"/>
<path transform="matrix(1,0,0,-1,178.428,81.495998)" stroke-width=".3985" stroke-linecap="butt" stroke-miterlimit="10" stroke-linejoin="miter" fill="none" stroke="#000000" d="M51.09079 28.3468C51.09079 29.44728 50.1987 30.33936 49.09824 30.33936 47.99776 30.33936 47.10568 29.44728 47.10568 28.3468 47.10568 27.24634 47.99776 26.35425 49.09824 26.35425 50.1987 26.35425 51.09079 27.24634 51.09079 28.3468ZM49.09824 28.3468"/>
<text xml:space="preserve" transform="matrix(1 0 -0 1 0 162.991)" font-size="9.9626" font-family="Computer Modern"><tspan y="-115.852" x="231.045">(</tspan></text>
<text xml:space="preserve" transform="matrix(1 0 -0 1 0 162.991)" font-size="9.9626" font-family="Computer Modern" font-style="italic"><tspan y="-115.852" x="234.92046 239.23427 243.66764">c,b</tspan></text>
<text xml:space="preserve" transform="matrix(1 0 -0 1 0 162.991)" font-size="9.9626" font-family="Computer Modern"><tspan y="-115.852" x="247.94159">)</tspan></text>
<path transform="matrix(1,0,0,-1,178.428,81.495998)" d="M51.09079-28.3468C51.09079-27.24634 50.1987-26.35425 49.09824-26.35425 47.99776-26.35425 47.10568-27.24634 47.10568-28.3468 47.10568-29.44728 47.99776-30.33936 49.09824-30.33936 50.1987-30.33936 51.09079-29.44728 51.09079-28.3468ZM49.09824-28.3468"/>
<path transform="matrix(1,0,0,-1,178.428,81.495998)" stroke-width=".3985" stroke-linecap="butt" stroke-miterlimit="10" stroke-linejoin="miter" fill="none" stroke="#000000" d="M51.09079-28.3468C51.09079-27.24634 50.1987-26.35425 49.09824-26.35425 47.99776-26.35425 47.10568-27.24634 47.10568-28.3468 47.10568-29.44728 47.99776-30.33936 49.09824-30.33936 50.1987-30.33936 51.09079-29.44728 51.09079-28.3468ZM49.09824-28.3468"/>
<text xml:space="preserve" transform="matrix(1 0 -0 1 0 162.991)" font-size="9.9626" font-family="Computer Modern"><tspan y="-50.658" x="231.045">(</tspan></text>
<text xml:space="preserve" transform="matrix(1 0 -0 1 0 162.991)" font-size="9.9626" font-family="Computer Modern" font-style="italic"><tspan y="-50.658" x="234.92046 239.23427 243.66764">c,a</tspan></text>
<text xml:space="preserve" transform="matrix(1 0 -0 1 0 162.991)" font-size="9.9626" font-family="Computer Modern"><tspan y="-50.658" x="248.93785">)</tspan></text>
<path transform="matrix(1,0,0,-1,178.428,81.495998)" d="M1.99255-56.69362C1.99255-55.59314 1.10046-54.70107 0-54.70107-1.10046-54.70107-1.99255-55.59314-1.99255-56.69362-1.99255-57.79408-1.10046-58.68617 0-58.68617 1.10046-58.68617 1.99255-57.79408 1.99255-56.69362ZM0-56.69362"/>
<path transform="matrix(1,0,0,-1,178.428,81.495998)" stroke-width=".3985" stroke-linecap="butt" stroke-miterlimit="10" stroke-linejoin="miter" fill="none" stroke="#000000" d="M1.99255-56.69362C1.99255-55.59314 1.10046-54.70107 0-54.70107-1.10046-54.70107-1.99255-55.59314-1.99255-56.69362-1.99255-57.79408-1.10046-58.68617 0-58.68617 1.10046-58.68617 1.99255-57.79408 1.99255-56.69362ZM0-56.69362"/>
<text xml:space="preserve" transform="matrix(1 0 -0 1 -.000015258789 162.991)" font-size="9.9626" font-family="Computer Modern"><tspan y="-13.811" x="153.19">(</tspan></text>
<text xml:space="preserve" transform="matrix(1 0 -0 1 -.000015258789 162.991)" font-size="9.9626" font-family="Computer Modern" font-style="italic"><tspan y="-13.811" x="157.06546 161.33942 165.77278">b,a</tspan></text>
<text xml:space="preserve" transform="matrix(1 0 -0 1 -.000015258789 162.991)" font-size="9.9626" font-family="Computer Modern"><tspan y="-13.811" x="171.043">)</tspan></text>
<path transform="matrix(1,0,0,-1,178.428,81.495998)" d="M-47.10568-28.3468C-47.10568-27.24634-47.99776-26.35425-49.09824-26.35425-50.1987-26.35425-51.09079-27.24634-51.09079-28.3468-51.09079-29.44728-50.1987-30.33936-49.09824-30.33936-47.99776-30.33936-47.10568-29.44728-47.10568-28.3468ZM-49.09824-28.3468"/>
<path transform="matrix(1,0,0,-1,178.428,81.495998)" stroke-width=".3985" stroke-linecap="butt" stroke-miterlimit="10" stroke-linejoin="miter" fill="none" stroke="#000000" d="M-47.10568-28.3468C-47.10568-27.24634-47.99776-26.35425-49.09824-26.35425-50.1987-26.35425-51.09079-27.24634-51.09079-28.3468-51.09079-29.44728-50.1987-30.33936-49.09824-30.33936-47.99776-30.33936-47.10568-29.44728-47.10568-28.3468ZM-49.09824-28.3468"/>
<text xml:space="preserve" transform="matrix(1 0 -0 1 0 162.991)" font-size="9.9626" font-family="Computer Modern"><tspan y="-42.157" x="105.047">(</tspan></text>
<text xml:space="preserve" transform="matrix(1 0 -0 1 0 162.991)" font-size="9.9626" font-family="Computer Modern" font-style="italic"><tspan y="-42.157" x="108.92245 113.1964 117.62976">b,c</tspan></text>
<text xml:space="preserve" transform="matrix(1 0 -0 1 0 162.991)" font-size="9.9626" font-family="Computer Modern"><tspan y="-42.157" x="121.943569">)</tspan></text>
<path transform="matrix(1,0,0,-1,178.428,81.495998)" d="M-47.10568 28.3468C-47.10568 29.44728-47.99776 30.33936-49.09824 30.33936-50.1987 30.33936-51.09079 29.44728-51.09079 28.3468-51.09079 27.24634-50.1987 26.35425-49.09824 26.35425-47.99776 26.35425-47.10568 27.24634-47.10568 28.3468ZM-49.09824 28.3468"/>
<path transform="matrix(1,0,0,-1,178.428,81.495998)" stroke-width=".3985" stroke-linecap="butt" stroke-miterlimit="10" stroke-linejoin="miter" fill="none" stroke="#000000" d="M-47.10568 28.3468C-47.10568 29.44728-47.99776 30.33936-49.09824 30.33936-50.1987 30.33936-51.09079 29.44728-51.09079 28.3468-51.09079 27.24634-50.1987 26.35425-49.09824 26.35425-47.99776 26.35425-47.10568 27.24634-47.10568 28.3468ZM-49.09824 28.3468"/>
<text xml:space="preserve" transform="matrix(1 0 -0 1 -.0000076293949 162.991)" font-size="9.9626" font-family="Computer Modern"><tspan y="-107.351" x="104.056">(</tspan></text>
<text xml:space="preserve" transform="matrix(1 0 -0 1 -.0000076293949 162.991)" font-size="9.9626" font-family="Computer Modern" font-style="italic"><tspan y="-107.351" x="107.93145 113.20167 117.635028">a,c</tspan></text>
<text xml:space="preserve" transform="matrix(1 0 -0 1 -.0000076293949 162.991)" font-size="9.9626" font-family="Computer Modern"><tspan y="-107.351" x="121.94883">)</tspan></text>
<path transform="matrix(1,0,0,-1,178.428,81.495998)" d="M26.5408 42.5189C26.5408 43.61938 25.64873 44.51146 24.54825 44.51146 23.44778 44.51146 22.5557 43.61938 22.5557 42.5189 22.5557 41.41844 23.44778 40.52635 24.54825 40.52635 25.64873 40.52635 26.5408 41.41844 26.5408 42.5189ZM24.54825 42.5189"/>
<path transform="matrix(1,0,0,-1,178.428,81.495998)" stroke-width=".3985" stroke-linecap="butt" stroke-miterlimit="10" stroke-linejoin="miter" fill="none" stroke="#000000" d="M26.5408 42.5189C26.5408 43.61938 25.64873 44.51146 24.54825 44.51146 23.44778 44.51146 22.5557 43.61938 22.5557 42.5189 22.5557 41.41844 23.44778 40.52635 24.54825 40.52635 25.64873 40.52635 26.5408 41.41844 26.5408 42.5189ZM24.54825 42.5189"/>
<text xml:space="preserve" transform="matrix(1 0 -0 1 0 162.991)" font-size="8.9664" font-family="Computer Modern"><tspan y="-129.775" x="206.495">(</tspan></text>
<text xml:space="preserve" transform="matrix(1 0 -0 1 0 162.991)" font-size="8.9664" font-family="Computer Modern" font-style="italic"><tspan y="-129.775" x="210.08156 214.96825 218.9583 223.05594">ac,b</tspan></text>
<text xml:space="preserve" transform="matrix(1 0 -0 1 0 162.991)" font-size="8.9664" font-family="Computer Modern"><tspan y="-129.775" x="227.00116">)</tspan></text>
<path transform="matrix(1,0,0,-1,178.428,81.495998)" d="M51.08907 0C51.08907 1.10046 50.19699 1.99255 49.09651 1.99255 47.99605 1.99255 47.10396 1.10046 47.10396 0 47.10396-1.10046 47.99605-1.99255 49.09651-1.99255 50.19699-1.99255 51.08907-1.10046 51.08907 0ZM49.09651 0"/>
<path transform="matrix(1,0,0,-1,178.428,81.495998)" stroke-width=".3985" stroke-linecap="butt" stroke-miterlimit="10" stroke-linejoin="miter" fill="none" stroke="#000000" d="M51.08907 0C51.08907 1.10046 50.19699 1.99255 49.09651 1.99255 47.99605 1.99255 47.10396 1.10046 47.10396 0 47.10396-1.10046 47.99605-1.99255 49.09651-1.99255 50.19699-1.99255 51.08907-1.10046 51.08907 0ZM49.09651 0"/>
<text xml:space="preserve" transform="matrix(1 0 -0 1 0 162.991)" font-size="8.9664" font-family="Computer Modern"><tspan y="-79.254" x="231.043">(</tspan></text>
<text xml:space="preserve" transform="matrix(1 0 -0 1 0 162.991)" font-size="8.9664" font-family="Computer Modern" font-style="italic"><tspan y="-79.254" x="234.62957 238.61962 242.71726 247.60395">c,ab</tspan></text>
<text xml:space="preserve" transform="matrix(1 0 -0 1 0 162.991)" font-size="8.9664" font-family="Computer Modern"><tspan y="-79.254" x="251.54917">)</tspan></text>
<path transform="matrix(1,0,0,-1,178.428,81.495998)" d="M26.5408-42.5189C26.5408-41.41844 25.64873-40.52635 24.54825-40.52635 23.44778-40.52635 22.5557-41.41844 22.5557-42.5189 22.5557-43.61938 23.44778-44.51146 24.54825-44.51146 25.64873-44.51146 26.5408-43.61938 26.5408-42.5189ZM24.54825-42.5189"/>
<path transform="matrix(1,0,0,-1,178.428,81.495998)" stroke-width=".3985" stroke-linecap="butt" stroke-miterlimit="10" stroke-linejoin="miter" fill="none" stroke="#000000" d="M26.5408-42.5189C26.5408-41.41844 25.64873-40.52635 24.54825-40.52635 23.44778-40.52635 22.5557-41.41844 22.5557-42.5189 22.5557-43.61938 23.44778-44.51146 24.54825-44.51146 25.64873-44.51146 26.5408-43.61938 26.5408-42.5189ZM24.54825-42.5189"/>
<text xml:space="preserve" transform="matrix(1 0 -0 1 0 162.991)" font-size="8.9664" font-family="Computer Modern"><tspan y="-44.738" x="175.372">(</tspan></text>
<text xml:space="preserve" transform="matrix(1 0 -0 1 0 162.991)" font-size="8.9664" font-family="Computer Modern" font-style="italic"><tspan y="-44.738" x="178.95856 182.90378 186.89383 190.99147">bc,a</tspan></text>
<text xml:space="preserve" transform="matrix(1 0 -0 1 0 162.991)" font-size="8.9664" font-family="Computer Modern"><tspan y="-44.738" x="195.87816">)</tspan></text>
<path transform="matrix(1,0,0,-1,178.428,81.495998)" d="M-22.5557-42.5189C-22.5557-41.41844-23.44778-40.52635-24.54825-40.52635-25.64873-40.52635-26.5408-41.41844-26.5408-42.5189-26.5408-43.61938-25.64873-44.51146-24.54825-44.51146-23.44778-44.51146-22.5557-43.61938-22.5557-42.5189ZM-24.54825-42.5189"/>
<path transform="matrix(1,0,0,-1,178.428,81.495998)" stroke-width=".3985" stroke-linecap="butt" stroke-miterlimit="10" stroke-linejoin="miter" fill="none" stroke="#000000" d="M-22.5557-42.5189C-22.5557-41.41844-23.44778-40.52635-24.54825-40.52635-25.64873-40.52635-26.5408-41.41844-26.5408-42.5189-26.5408-43.61938-25.64873-44.51146-24.54825-44.51146-23.44778-44.51146-22.5557-43.61938-22.5557-42.5189ZM-24.54825-42.5189"/>
<text xml:space="preserve" transform="matrix(1 0 -0 1 -.0000076293949 162.991)" font-size="8.9664" font-family="Computer Modern"><tspan y="-28.733" x="126.276">(</tspan></text>
<text xml:space="preserve" transform="matrix(1 0 -0 1 -.0000076293949 162.991)" font-size="8.9664" font-family="Computer Modern" font-style="italic"><tspan y="-28.733" x="129.86257 133.80779 137.90543 142.79212">b,ac</tspan></text>
<text xml:space="preserve" transform="matrix(1 0 -0 1 -.0000076293949 162.991)" font-size="8.9664" font-family="Computer Modern"><tspan y="-28.733" x="146.78217">)</tspan></text>
<path transform="matrix(1,0,0,-1,178.428,81.495998)" d="M-47.10396 0C-47.10396 1.10046-47.99605 1.99255-49.09651 1.99255-50.19699 1.99255-51.08907 1.10046-51.08907 0-51.08907-1.10046-50.19699-1.99255-49.09651-1.99255-47.99605-1.99255-47.10396-1.10046-47.10396 0ZM-49.09651 0"/>
<path transform="matrix(1,0,0,-1,178.428,81.495998)" stroke-width=".3985" stroke-linecap="butt" stroke-miterlimit="10" stroke-linejoin="miter" fill="none" stroke="#000000" d="M-47.10396 0C-47.10396 1.10046-47.99605 1.99255-49.09651 1.99255-50.19699 1.99255-51.08907 1.10046-51.08907 0-51.08907-1.10046-50.19699-1.99255-49.09651-1.99255-47.99605-1.99255-47.10396-1.10046-47.10396 0ZM-49.09651 0"/>
<text xml:space="preserve" transform="matrix(1 0 -0 1 0 162.991)" font-size="8.9664" font-family="Computer Modern"><tspan y="-79.254" x="101.728">(</tspan></text>
<text xml:space="preserve" transform="matrix(1 0 -0 1 0 162.991)" font-size="8.9664" font-family="Computer Modern" font-style="italic"><tspan y="-79.254" x="105.31456 110.20125 114.14646 118.24411">ab,c</tspan></text>
<text xml:space="preserve" transform="matrix(1 0 -0 1 0 162.991)" font-size="8.9664" font-family="Computer Modern"><tspan y="-79.254" x="122.23416">)</tspan></text>
<path transform="matrix(1,0,0,-1,178.428,81.495998)" d="M-22.5557 42.5189C-22.5557 43.61938-23.44778 44.51146-24.54825 44.51146-25.64873 44.51146-26.5408 43.61938-26.5408 42.5189-26.5408 41.41844-25.64873 40.52635-24.54825 40.52635-23.44778 40.52635-22.5557 41.41844-22.5557 42.5189ZM-24.54825 42.5189"/>
<path transform="matrix(1,0,0,-1,178.428,81.495998)" stroke-width=".3985" stroke-linecap="butt" stroke-miterlimit="10" stroke-linejoin="miter" fill="none" stroke="#000000" d="M-22.5557 42.5189C-22.5557 43.61938-23.44778 44.51146-24.54825 44.51146-25.64873 44.51146-26.5408 43.61938-26.5408 42.5189-26.5408 41.41844-25.64873 40.52635-24.54825 40.52635-23.44778 40.52635-22.5557 41.41844-22.5557 42.5189ZM-24.54825 42.5189"/>
<text xml:space="preserve" transform="matrix(1 0 -0 1 0 162.991)" font-size="8.9664" font-family="Computer Modern"><tspan y="-113.769" x="157.4">(</tspan></text>
<text xml:space="preserve" transform="matrix(1 0 -0 1 0 162.991)" font-size="8.9664" font-family="Computer Modern" font-style="italic"><tspan y="-113.769" x="160.98656 165.87325 169.97089 173.9161">a,bc</tspan></text>
<text xml:space="preserve" transform="matrix(1 0 -0 1 0 162.991)" font-size="8.9664" font-family="Computer Modern"><tspan y="-113.769" x="177.90616">)</tspan></text>
<path transform="matrix(1,0,0,-1,178.428,81.495998)" d="M37.42604-61.3728C37.42604-60.27232 36.53397-59.38025 35.43349-59.38025 34.33302-59.38025 33.44093-60.27232 33.44093-61.3728 33.44093-62.47327 34.33302-63.36536 35.43349-63.36536 36.53397-63.36536 37.42604-62.47327 37.42604-61.3728ZM35.43349-61.3728"/>
<path transform="matrix(1,0,0,-1,178.428,81.495998)" stroke-width=".3985" stroke-linecap="butt" stroke-miterlimit="10" stroke-linejoin="miter" fill="none" stroke="#000000" d="M37.42604-61.3728C37.42604-60.27232 36.53397-59.38025 35.43349-59.38025 34.33302-59.38025 33.44093-60.27232 33.44093-61.3728 33.44093-62.47327 34.33302-63.36536 35.43349-63.36536 36.53397-63.36536 37.42604-62.47327 37.42604-61.3728ZM35.43349-61.3728"/>
<text xml:space="preserve" transform="matrix(1 0 -0 1 0 162.991)" font-size="9.9626" font-family="Computer Modern"><tspan y="-9.132" x="217.381">(</tspan></text>
<text xml:space="preserve" transform="matrix(1 0 -0 1 0 162.991)" font-size="9.9626" font-family="Computer Modern" font-style="italic"><tspan y="-9.132" x="221.25646 225.89904 230.3324">e,a</tspan></text>
<text xml:space="preserve" transform="matrix(1 0 -0 1 0 162.991)" font-size="9.9626" font-family="Computer Modern"><tspan y="-9.132" x="235.60262">)</tspan></text>
<path transform="matrix(1,0,0,-1,178.428,81.495998)" d="M19.70929-59.0332C19.70929-57.93272 18.81721-57.04065 17.71674-57.04065 16.61627-57.04065 15.72418-57.93272 15.72418-59.0332 15.72418-60.13367 16.61627-61.02576 17.71674-61.02576 18.81721-61.02576 19.70929-60.13367 19.70929-59.0332ZM17.71674-59.0332"/>
<path transform="matrix(1,0,0,-1,178.428,81.495998)" stroke-width=".3985" stroke-linecap="butt" stroke-miterlimit="10" stroke-linejoin="miter" fill="none" stroke="#000000" d="M19.70929-59.0332C19.70929-57.93272 18.81721-57.04065 17.71674-57.04065 16.61627-57.04065 15.72418-57.93272 15.72418-59.0332 15.72418-60.13367 16.61627-61.02576 17.71674-61.02576 18.81721-61.02576 19.70929-60.13367 19.70929-59.0332ZM17.71674-59.0332"/>
<text xml:space="preserve" transform="matrix(1 0 -0 1 -.000015258789 162.991)" font-size="8.9664" font-family="Computer Modern"><tspan y="-12.218" x="183.955">(</tspan></text>
<text xml:space="preserve" transform="matrix(1 0 -0 1 -.000015258789 162.991)" font-size="8.9664" font-family="Computer Modern" font-style="italic"><tspan y="-12.218" x="187.54157 191.48679 195.77272 199.87036">be,a</tspan></text>
<text xml:space="preserve" transform="matrix(1 0 -0 1 -.000015258789 162.991)" font-size="8.9664" font-family="Computer Modern"><tspan y="-12.218" x="204.75705">)</tspan></text>
<path transform="matrix(1,0,0,-1,178.428,81.495998)" d="M44.25842-44.8598C44.25842-43.75932 43.36635-42.86725 42.26587-42.86725 41.1654-42.86725 40.27332-43.75932 40.27332-44.8598 40.27332-45.96027 41.1654-46.85236 42.26587-46.85236 43.36635-46.85236 44.25842-45.96027 44.25842-44.8598ZM42.26587-44.8598"/>
<path transform="matrix(1,0,0,-1,178.428,81.495998)" stroke-width=".3985" stroke-linecap="butt" stroke-miterlimit="10" stroke-linejoin="miter" fill="none" stroke="#000000" d="M44.25842-44.8598C44.25842-43.75932 43.36635-42.86725 42.26587-42.86725 41.1654-42.86725 40.27332-43.75932 40.27332-44.8598 40.27332-45.96027 41.1654-46.85236 42.26587-46.85236 43.36635-46.85236 44.25842-45.96027 44.25842-44.8598ZM42.26587-44.8598"/>
<text xml:space="preserve" transform="matrix(1 0 -0 1 0 162.991)" font-size="8.9664" font-family="Computer Modern"><tspan y="-34.395" x="224.213">(</tspan></text>
<text xml:space="preserve" transform="matrix(1 0 -0 1 0 162.991)" font-size="8.9664" font-family="Computer Modern" font-style="italic"><tspan y="-34.395" x="227.79956 231.78961 236.07555 240.17319">ce,a</tspan></text>
<text xml:space="preserve" transform="matrix(1 0 -0 1 0 162.991)" font-size="8.9664" font-family="Computer Modern"><tspan y="-34.395" x="245.05988">)</tspan></text>
<path transform="matrix(1,0,0,-1,178.428,81.495998)" stroke-width=".3985" stroke-linecap="butt" stroke-miterlimit="10" stroke-linejoin="miter" fill="none" stroke="#000000" d="M0-56.69362 35.43349-61.3728 49.09824-28.3468"/>
<path transform="matrix(1,0,0,-1,178.428,81.495998)" d="M31.98341-51.94563C31.98341-50.84517 31.09134-49.95308 29.99086-49.95308 28.8904-49.95308 27.9983-50.84517 27.9983-51.94563 27.9983-53.04611 28.8904-53.93819 29.99086-53.93819 31.09134-53.93819 31.98341-53.04611 31.98341-51.94563ZM29.99086-51.94563"/>
<path transform="matrix(1,0,0,-1,178.428,81.495998)" stroke-width=".3985" stroke-linecap="butt" stroke-miterlimit="10" stroke-linejoin="miter" fill="none" stroke="#000000" d="M31.98341-51.94563C31.98341-50.84517 31.09134-49.95308 29.99086-49.95308 28.8904-49.95308 27.9983-50.84517 27.9983-51.94563 27.9983-53.04611 28.8904-53.93819 29.99086-53.93819 31.09134-53.93819 31.98341-53.04611 31.98341-51.94563ZM29.99086-51.94563"/>
<text xml:space="preserve" transform="matrix(1 0 -0 1 -.000015258789 162.991)" font-size="4.9813" font-family="Computer Modern"><tspan y="-28.305" x="211.938">(</tspan></text>
<text xml:space="preserve" transform="matrix(1 0 -0 1 -.000015258789 162.991)" font-size="4.9813" font-family="Computer Modern" font-style="italic"><tspan y="-28.305" x="214.63787 217.79103 221.0239 224.39624 227.89809">bce,a</tspan></text>
<text xml:space="preserve" transform="matrix(1 0 -0 1 -.000015258789 162.991)" font-size="4.9813" font-family="Computer Modern"><tspan y="-28.305" x="231.75362">)</tspan></text>
<path transform="matrix(1,0,0,-1,178.428,81.495998)" stroke-width=".3985" stroke-linecap="butt" stroke-miterlimit="10" stroke-linejoin="miter" fill="none" stroke="#000000" d="M35.43349-61.3728 24.54825-42.5189"/>
<path transform="matrix(1,0,0,-1,178.428,81.495998)" stroke-width=".3985" stroke-linecap="butt" stroke-miterlimit="10" stroke-linejoin="miter" fill="none" stroke="#000000" d="M29.99086-51.94563 17.71674-59.0332"/>
<path transform="matrix(1,0,0,-1,178.428,81.495998)" stroke-width=".3985" stroke-linecap="butt" stroke-miterlimit="10" stroke-linejoin="miter" fill="none" stroke="#000000" d="M29.99086-51.94563 42.26587-44.8598"/>
<path transform="matrix(1,0,0,-1,178.428,81.495998)" stroke-width=".3985" stroke-linecap="butt" stroke-miterlimit="10" stroke-linejoin="miter" fill="none" stroke="#000000" d="M29.99086-51.94563 0-56.69362"/>
<path transform="matrix(1,0,0,-1,178.428,81.495998)" stroke-width=".3985" stroke-linecap="butt" stroke-miterlimit="10" stroke-linejoin="miter" fill="none" stroke="#000000" d="M29.99086-51.94563 49.09824-28.3468"/>
<g>
<path transform="matrix(1,0,0,-1,178.428,81.495998)" d="M49.09824-28.3468 0-56.69362 35.43349-61.3728 49.09824-28.3468" fill="#0000ff" fill-opacity=".3"/>
<path transform="matrix(1,0,0,-1,178.428,81.495998)" stroke-width=".3985" stroke-linecap="butt" stroke-miterlimit="10" stroke-linejoin="miter" fill="none" stroke="#0000ff" stroke-opacity=".3" d="M49.09824-28.3468 0-56.69362 35.43349-61.3728 49.09824-28.3468"/>
</g>
<path transform="matrix(1,0,0,-1,178.428,81.495998)" d="M-33.44093 61.3728C-33.44093 62.47327-34.33302 63.36536-35.43349 63.36536-36.53397 63.36536-37.42604 62.47327-37.42604 61.3728-37.42604 60.27232-36.53397 59.38025-35.43349 59.38025-34.33302 59.38025-33.44093 60.27232-33.44093 61.3728ZM-35.43349 61.3728"/>
<path transform="matrix(1,0,0,-1,178.428,81.495998)" stroke-width=".3985" stroke-linecap="butt" stroke-miterlimit="10" stroke-linejoin="miter" fill="none" stroke="#000000" d="M-33.44093 61.3728C-33.44093 62.47327-34.33302 63.36536-35.43349 63.36536-36.53397 63.36536-37.42604 62.47327-37.42604 61.3728-37.42604 60.27232-36.53397 59.38025-35.43349 59.38025-34.33302 59.38025-33.44093 60.27232-33.44093 61.3728ZM-35.43349 61.3728"/>
<text xml:space="preserve" transform="matrix(1 0 -0 1 -.0000076293949 162.991)" font-size="9.9626" font-family="Computer Modern"><tspan y="-148.878" x="117.393">(</tspan></text>
<text xml:space="preserve" transform="matrix(1 0 -0 1 -.0000076293949 162.991)" font-size="9.9626" font-family="Computer Modern" font-style="italic"><tspan y="-148.878" x="121.26845 126.538669 130.97203">a,e</tspan></text>
<text xml:space="preserve" transform="matrix(1 0 -0 1 -.0000076293949 162.991)" font-size="9.9626" font-family="Computer Modern"><tspan y="-148.878" x="135.61461">)</tspan></text>
<path transform="matrix(1,0,0,-1,178.428,81.495998)" d="M-15.72418 59.0332C-15.72418 60.13367-16.61627 61.02576-17.71674 61.02576-18.81721 61.02576-19.70929 60.13367-19.70929 59.0332-19.70929 57.93272-18.81721 57.04065-17.71674 57.04065-16.61627 57.04065-15.72418 57.93272-15.72418 59.0332ZM-17.71674 59.0332"/>
<path transform="matrix(1,0,0,-1,178.428,81.495998)" stroke-width=".3985" stroke-linecap="butt" stroke-miterlimit="10" stroke-linejoin="miter" fill="none" stroke="#000000" d="M-15.72418 59.0332C-15.72418 60.13367-16.61627 61.02576-17.71674 61.02576-18.81721 61.02576-19.70929 60.13367-19.70929 59.0332-19.70929 57.93272-18.81721 57.04065-17.71674 57.04065-16.61627 57.04065-15.72418 57.93272-15.72418 59.0332ZM-17.71674 59.0332"/>
<text xml:space="preserve" transform="matrix(1 0 -0 1 -.000015258789 162.991)" font-size="8.9664" font-family="Computer Modern"><tspan y="-146.289" x="148.522">(</tspan></text>
<text xml:space="preserve" transform="matrix(1 0 -0 1 -.000015258789 162.991)" font-size="8.9664" font-family="Computer Modern" font-style="italic"><tspan y="-146.289" x="152.10857 156.99526 161.0929 165.03812">a,be</tspan></text>
<text xml:space="preserve" transform="matrix(1 0 -0 1 -.000015258789 162.991)" font-size="8.9664" font-family="Computer Modern"><tspan y="-146.289" x="169.32405">)</tspan></text>
<path transform="matrix(1,0,0,-1,178.428,81.495998)" d="M-40.27332 44.8598C-40.27332 45.96027-41.1654 46.85236-42.26587 46.85236-43.36635 46.85236-44.25842 45.96027-44.25842 44.8598-44.25842 43.75932-43.36635 42.86725-42.26587 42.86725-41.1654 42.86725-40.27332 43.75932-40.27332 44.8598ZM-42.26587 44.8598"/>
<path transform="matrix(1,0,0,-1,178.428,81.495998)" stroke-width=".3985" stroke-linecap="butt" stroke-miterlimit="10" stroke-linejoin="miter" fill="none" stroke="#000000" d="M-40.27332 44.8598C-40.27332 45.96027-41.1654 46.85236-42.26587 46.85236-43.36635 46.85236-44.25842 45.96027-44.25842 44.8598-44.25842 43.75932-43.36635 42.86725-42.26587 42.86725-41.1654 42.86725-40.27332 43.75932-40.27332 44.8598ZM-42.26587 44.8598"/>
<text xml:space="preserve" transform="matrix(1 0 -0 1 -.0000076293949 162.991)" font-size="8.9664" font-family="Computer Modern"><tspan y="-124.113" x="108.224">(</tspan></text>
<text xml:space="preserve" transform="matrix(1 0 -0 1 -.0000076293949 162.991)" font-size="8.9664" font-family="Computer Modern" font-style="italic"><tspan y="-124.113" x="111.81056 116.69725 120.7949 124.78495">a,ce</tspan></text>
<text xml:space="preserve" transform="matrix(1 0 -0 1 -.0000076293949 162.991)" font-size="8.9664" font-family="Computer Modern"><tspan y="-124.113" x="129.07089">)</tspan></text>
<path transform="matrix(1,0,0,-1,178.428,81.495998)" stroke-width=".3985" stroke-linecap="butt" stroke-miterlimit="10" stroke-linejoin="miter" fill="none" stroke="#000000" d="M0 56.69362-35.43349 61.3728-49.09824 28.3468"/>
<path transform="matrix(1,0,0,-1,178.428,81.495998)" d="M-27.9983 51.94563C-27.9983 53.04611-28.8904 53.93819-29.99086 53.93819-31.09134 53.93819-31.98341 53.04611-31.98341 51.94563-31.98341 50.84517-31.09134 49.95308-29.99086 49.95308-28.8904 49.95308-27.9983 50.84517-27.9983 51.94563ZM-29.99086 51.94563"/>
<path transform="matrix(1,0,0,-1,178.428,81.495998)" stroke-width=".3985" stroke-linecap="butt" stroke-miterlimit="10" stroke-linejoin="miter" fill="none" stroke="#000000" d="M-27.9983 51.94563C-27.9983 53.04611-28.8904 53.93819-29.99086 53.93819-31.09134 53.93819-31.98341 53.04611-31.98341 51.94563-31.98341 50.84517-31.09134 49.95308-29.99086 49.95308-28.8904 49.95308-27.9983 50.84517-27.9983 51.94563ZM-29.99086 51.94563"/>
<text xml:space="preserve" transform="matrix(1 0 -0 1 -.0000076293949 162.991)" font-size="4.9813" font-family="Computer Modern"><tspan y="-132.195" x="122.396">(</tspan></text>
<text xml:space="preserve" transform="matrix(1 0 -0 1 -.0000076293949 162.991)" font-size="4.9813" font-family="Computer Modern" font-style="italic"><tspan y="-132.195" x="125.09587 128.9514 132.45325 135.60642 138.83928">a,bce</tspan></text>
<text xml:space="preserve" transform="matrix(1 0 -0 1 -.0000076293949 162.991)" font-size="4.9813" font-family="Computer Modern"><tspan y="-132.195" x="142.21163">)</tspan></text>
<path transform="matrix(1,0,0,-1,178.428,81.495998)" stroke-width=".3985" stroke-linecap="butt" stroke-miterlimit="10" stroke-linejoin="miter" fill="none" stroke="#000000" d="M-35.43349 61.3728-24.54825 42.5189"/>
<path transform="matrix(1,0,0,-1,178.428,81.495998)" stroke-width=".3985" stroke-linecap="butt" stroke-miterlimit="10" stroke-linejoin="miter" fill="none" stroke="#000000" d="M-29.99086 51.94563-17.71674 59.0332"/>
<path transform="matrix(1,0,0,-1,178.428,81.495998)" stroke-width=".3985" stroke-linecap="butt" stroke-miterlimit="10" stroke-linejoin="miter" fill="none" stroke="#000000" d="M-29.99086 51.94563-42.26587 44.8598"/>
<path transform="matrix(1,0,0,-1,178.428,81.495998)" stroke-width=".3985" stroke-linecap="butt" stroke-miterlimit="10" stroke-linejoin="miter" fill="none" stroke="#000000" d="M-29.99086 51.94563 0 56.69362"/>
<path transform="matrix(1,0,0,-1,178.428,81.495998)" stroke-width=".3985" stroke-linecap="butt" stroke-miterlimit="10" stroke-linejoin="miter" fill="none" stroke="#000000" d="M-29.99086 51.94563-49.09824 28.3468"/>
<g>
<path transform="matrix(1,0,0,-1,178.428,81.495998)" d="M-49.09824 28.3468 0 56.69362-35.43349 61.3728-49.09824 28.3468" fill="#0000ff" fill-opacity=".3"/>
<path transform="matrix(1,0,0,-1,178.428,81.495998)" stroke-width=".3985" stroke-linecap="butt" stroke-miterlimit="10" stroke-linejoin="miter" fill="none" stroke="#0000ff" stroke-opacity=".3" d="M-49.09824 28.3468 0 56.69362-35.43349 61.3728-49.09824 28.3468"/>
</g>
<path transform="matrix(1,0,0,-1,341.789,81.495998)" stroke-width=".3985" stroke-linecap="butt" stroke-miterlimit="10" stroke-linejoin="miter" fill="none" stroke="#0000ff" d="M-49.09824-28.3468V28.3468L-35.43349 61.3728"/>
<path transform="matrix(1,0,0,-1,341.789,81.495998)" stroke-width=".3985" stroke-linecap="butt" stroke-miterlimit="10" stroke-linejoin="miter" fill="none" stroke="#ff0000" d="M49.09824 28.3468 0 56.69362-35.43349 61.3728"/>
<path transform="matrix(1,0,0,-1,341.789,81.495998)" stroke-width=".3985" stroke-linecap="butt" stroke-miterlimit="10" stroke-linejoin="miter" fill="none" stroke="#0000ff" d="M49.09824 28.3468V-28.3468L35.43349-61.3728"/>
<path transform="matrix(1,0,0,-1,341.789,81.495998)" stroke-width=".3985" stroke-linecap="butt" stroke-miterlimit="10" stroke-linejoin="miter" fill="none" stroke="#ff0000" d="M-49.09824-28.3468 0-56.69362 35.43349-61.3728"/>
<path transform="matrix(1,0,0,-1,341.789,81.495998)" d="M1.99255 56.69362C1.99255 57.79408 1.10046 58.68617 0 58.68617-1.10046 58.68617-1.99255 57.79408-1.99255 56.69362-1.99255 55.59314-1.10046 54.70107 0 54.70107 1.10046 54.70107 1.99255 55.59314 1.99255 56.69362ZM0 56.69362" fill="#ff0000"/>
<path transform="matrix(1,0,0,-1,341.789,81.495998)" stroke-width=".3985" stroke-linecap="butt" stroke-miterlimit="10" stroke-linejoin="miter" fill="none" stroke="#ff0000" d="M1.99255 56.69362C1.99255 57.79408 1.10046 58.68617 0 58.68617-1.10046 58.68617-1.99255 57.79408-1.99255 56.69362-1.99255 55.59314-1.10046 54.70107 0 54.70107 1.10046 54.70107 1.99255 55.59314 1.99255 56.69362ZM0 56.69362"/>
<text fill="#ff0000" xml:space="preserve" transform="matrix(1 0 -0 1 0 162.991)" font-size="9.9626" font-family="Computer Modern"><tspan y="-144.199" x="345.308">(</tspan></text>
<text fill="#ff0000" xml:space="preserve" transform="matrix(1 0 -0 1 0 162.991)" font-size="9.9626" font-family="Computer Modern" font-style="italic"><tspan y="-144.199" x="349.18348 354.45368 358.88703">a,b</tspan></text>
<text fill="#ff0000" xml:space="preserve" transform="matrix(1 0 -0 1 0 162.991)" font-size="9.9626" font-family="Computer Modern"><tspan y="-144.199" x="363.16099">)</tspan></text>
<path transform="matrix(1,0,0,-1,341.789,81.495998)" d="M51.09079 28.3468C51.09079 29.44728 50.1987 30.33936 49.09824 30.33936 47.99776 30.33936 47.10568 29.44728 47.10568 28.3468 47.10568 27.24634 47.99776 26.35425 49.09824 26.35425 50.1987 26.35425 51.09079 27.24634 51.09079 28.3468ZM49.09824 28.3468" fill="#800080"/>
<path transform="matrix(1,0,0,-1,341.789,81.495998)" stroke-width=".3985" stroke-linecap="butt" stroke-miterlimit="10" stroke-linejoin="miter" fill="none" stroke="#800080" d="M51.09079 28.3468C51.09079 29.44728 50.1987 30.33936 49.09824 30.33936 47.99776 30.33936 47.10568 29.44728 47.10568 28.3468 47.10568 27.24634 47.99776 26.35425 49.09824 26.35425 50.1987 26.35425 51.09079 27.24634 51.09079 28.3468ZM49.09824 28.3468"/>
<text fill="#800080" xml:space="preserve" transform="matrix(1 0 -0 1 0 162.991)" font-size="9.9626" font-family="Computer Modern"><tspan y="-115.852" x="394.406">(</tspan></text>
<text fill="#800080" xml:space="preserve" transform="matrix(1 0 -0 1 0 162.991)" font-size="9.9626" font-family="Computer Modern" font-style="italic"><tspan y="-115.852" x="398.28147 402.59529 407.02864">c,b</tspan></text>
<text fill="#800080" xml:space="preserve" transform="matrix(1 0 -0 1 0 162.991)" font-size="9.9626" font-family="Computer Modern"><tspan y="-115.852" x="411.30259">)</tspan></text>
<path transform="matrix(1,0,0,-1,341.789,81.495998)" d="M51.09079-28.3468C51.09079-27.24634 50.1987-26.35425 49.09824-26.35425 47.99776-26.35425 47.10568-27.24634 47.10568-28.3468 47.10568-29.44728 47.99776-30.33936 49.09824-30.33936 50.1987-30.33936 51.09079-29.44728 51.09079-28.3468ZM49.09824-28.3468" fill="#0000ff"/>
<path transform="matrix(1,0,0,-1,341.789,81.495998)" stroke-width=".3985" stroke-linecap="butt" stroke-miterlimit="10" stroke-linejoin="miter" fill="none" stroke="#0000ff" d="M51.09079-28.3468C51.09079-27.24634 50.1987-26.35425 49.09824-26.35425 47.99776-26.35425 47.10568-27.24634 47.10568-28.3468 47.10568-29.44728 47.99776-30.33936 49.09824-30.33936 50.1987-30.33936 51.09079-29.44728 51.09079-28.3468ZM49.09824-28.3468"/>
<text fill="#0000ff" xml:space="preserve" transform="matrix(1 0 -0 1 0 162.991)" font-size="9.9626" font-family="Computer Modern"><tspan y="-50.658" x="394.406">(</tspan></text>
<text fill="#0000ff" xml:space="preserve" transform="matrix(1 0 -0 1 0 162.991)" font-size="9.9626" font-family="Computer Modern" font-style="italic"><tspan y="-50.658" x="398.28147 402.59529 407.02864">c,a</tspan></text>
<text fill="#0000ff" xml:space="preserve" transform="matrix(1 0 -0 1 0 162.991)" font-size="9.9626" font-family="Computer Modern"><tspan y="-50.658" x="412.29884">)</tspan></text>
<path transform="matrix(1,0,0,-1,341.789,81.495998)" d="M1.99255-56.69362C1.99255-55.59314 1.10046-54.70107 0-54.70107-1.10046-54.70107-1.99255-55.59314-1.99255-56.69362-1.99255-57.79408-1.10046-58.68617 0-58.68617 1.10046-58.68617 1.99255-57.79408 1.99255-56.69362ZM0-56.69362" fill="#ff0000"/>
<path transform="matrix(1,0,0,-1,341.789,81.495998)" stroke-width=".3985" stroke-linecap="butt" stroke-miterlimit="10" stroke-linejoin="miter" fill="none" stroke="#ff0000" d="M1.99255-56.69362C1.99255-55.59314 1.10046-54.70107 0-54.70107-1.10046-54.70107-1.99255-55.59314-1.99255-56.69362-1.99255-57.79408-1.10046-58.68617 0-58.68617 1.10046-58.68617 1.99255-57.79408 1.99255-56.69362ZM0-56.69362"/>
<text fill="#ff0000" xml:space="preserve" transform="matrix(1 0 -0 1 0 162.991)" font-size="9.9626" font-family="Computer Modern"><tspan y="-13.811" x="316.551">(</tspan></text>
<text fill="#ff0000" xml:space="preserve" transform="matrix(1 0 -0 1 0 162.991)" font-size="9.9626" font-family="Computer Modern" font-style="italic"><tspan y="-13.811" x="320.42646 324.7004 329.13377">b,a</tspan></text>
<text fill="#ff0000" xml:space="preserve" transform="matrix(1 0 -0 1 0 162.991)" font-size="9.9626" font-family="Computer Modern"><tspan y="-13.811" x="334.40397">)</tspan></text>
<path transform="matrix(1,0,0,-1,341.789,81.495998)" d="M-47.10568-28.3468C-47.10568-27.24634-47.99776-26.35425-49.09824-26.35425-50.1987-26.35425-51.09079-27.24634-51.09079-28.3468-51.09079-29.44728-50.1987-30.33936-49.09824-30.33936-47.99776-30.33936-47.10568-29.44728-47.10568-28.3468ZM-49.09824-28.3468" fill="#800080"/>
<path transform="matrix(1,0,0,-1,341.789,81.495998)" stroke-width=".3985" stroke-linecap="butt" stroke-miterlimit="10" stroke-linejoin="miter" fill="none" stroke="#800080" d="M-47.10568-28.3468C-47.10568-27.24634-47.99776-26.35425-49.09824-26.35425-50.1987-26.35425-51.09079-27.24634-51.09079-28.3468-51.09079-29.44728-50.1987-30.33936-49.09824-30.33936-47.99776-30.33936-47.10568-29.44728-47.10568-28.3468ZM-49.09824-28.3468"/>
<text fill="#800080" xml:space="preserve" transform="matrix(1 0 -0 1 .000030517579 162.991)" font-size="9.9626" font-family="Computer Modern"><tspan y="-42.157" x="268.408">(</tspan></text>
<text fill="#800080" xml:space="preserve" transform="matrix(1 0 -0 1 .000030517579 162.991)" font-size="9.9626" font-family="Computer Modern" font-style="italic"><tspan y="-42.157" x="272.28346 276.5574 280.99076">b,c</tspan></text>
<text fill="#800080" xml:space="preserve" transform="matrix(1 0 -0 1 .000030517579 162.991)" font-size="9.9626" font-family="Computer Modern"><tspan y="-42.157" x="285.30458">)</tspan></text>
<path transform="matrix(1,0,0,-1,341.789,81.495998)" d="M-47.10568 28.3468C-47.10568 29.44728-47.99776 30.33936-49.09824 30.33936-50.1987 30.33936-51.09079 29.44728-51.09079 28.3468-51.09079 27.24634-50.1987 26.35425-49.09824 26.35425-47.99776 26.35425-47.10568 27.24634-47.10568 28.3468ZM-49.09824 28.3468" fill="#0000ff"/>
<path transform="matrix(1,0,0,-1,341.789,81.495998)" stroke-width=".3985" stroke-linecap="butt" stroke-miterlimit="10" stroke-linejoin="miter" fill="none" stroke="#0000ff" d="M-47.10568 28.3468C-47.10568 29.44728-47.99776 30.33936-49.09824 30.33936-50.1987 30.33936-51.09079 29.44728-51.09079 28.3468-51.09079 27.24634-50.1987 26.35425-49.09824 26.35425-47.99776 26.35425-47.10568 27.24634-47.10568 28.3468ZM-49.09824 28.3468"/>
<text fill="#0000ff" xml:space="preserve" transform="matrix(1 0 -0 1 0 162.991)" font-size="9.9626" font-family="Computer Modern"><tspan y="-107.351" x="267.417">(</tspan></text>
<text fill="#0000ff" xml:space="preserve" transform="matrix(1 0 -0 1 0 162.991)" font-size="9.9626" font-family="Computer Modern" font-style="italic"><tspan y="-107.351" x="271.29246 276.56266 280.996">a,c</tspan></text>
<text fill="#0000ff" xml:space="preserve" transform="matrix(1 0 -0 1 0 162.991)" font-size="9.9626" font-family="Computer Modern"><tspan y="-107.351" x="285.3098">)</tspan></text>
<path transform="matrix(1,0,0,-1,341.789,81.495998)" d="M26.5408 42.5189C26.5408 43.61938 25.64873 44.51146 24.54825 44.51146 23.44778 44.51146 22.5557 43.61938 22.5557 42.5189 22.5557 41.41844 23.44778 40.52635 24.54825 40.52635 25.64873 40.52635 26.5408 41.41844 26.5408 42.5189ZM24.54825 42.5189" fill="#ff0000"/>
<path transform="matrix(1,0,0,-1,341.789,81.495998)" stroke-width=".3985" stroke-linecap="butt" stroke-miterlimit="10" stroke-linejoin="miter" fill="none" stroke="#ff0000" d="M26.5408 42.5189C26.5408 43.61938 25.64873 44.51146 24.54825 44.51146 23.44778 44.51146 22.5557 43.61938 22.5557 42.5189 22.5557 41.41844 23.44778 40.52635 24.54825 40.52635 25.64873 40.52635 26.5408 41.41844 26.5408 42.5189ZM24.54825 42.5189"/>
<text fill="#ff0000" xml:space="preserve" transform="matrix(1 0 -0 1 0 162.991)" font-size="8.9664" font-family="Computer Modern"><tspan y="-129.775" x="369.856">(</tspan></text>
<text fill="#ff0000" xml:space="preserve" transform="matrix(1 0 -0 1 0 162.991)" font-size="8.9664" font-family="Computer Modern" font-style="italic"><tspan y="-129.775" x="373.44255 378.32923 382.31929 386.41694">ac,b</tspan></text>
<text fill="#ff0000" xml:space="preserve" transform="matrix(1 0 -0 1 0 162.991)" font-size="8.9664" font-family="Computer Modern"><tspan y="-129.775" x="390.36216">)</tspan></text>
<path transform="matrix(1,0,0,-1,341.789,81.495998)" d="M51.08907 0C51.08907 1.10046 50.19699 1.99255 49.09651 1.99255 47.99605 1.99255 47.10396 1.10046 47.10396 0 47.10396-1.10046 47.99605-1.99255 49.09651-1.99255 50.19699-1.99255 51.08907-1.10046 51.08907 0ZM49.09651 0" fill="#0000ff"/>
<path transform="matrix(1,0,0,-1,341.789,81.495998)" stroke-width=".3985" stroke-linecap="butt" stroke-miterlimit="10" stroke-linejoin="miter" fill="none" stroke="#0000ff" d="M51.08907 0C51.08907 1.10046 50.19699 1.99255 49.09651 1.99255 47.99605 1.99255 47.10396 1.10046 47.10396 0 47.10396-1.10046 47.99605-1.99255 49.09651-1.99255 50.19699-1.99255 51.08907-1.10046 51.08907 0ZM49.09651 0"/>
<text fill="#0000ff" xml:space="preserve" transform="matrix(1 0 -0 1 0 162.991)" font-size="8.9664" font-family="Computer Modern"><tspan y="-79.254" x="394.404">(</tspan></text>
<text fill="#0000ff" xml:space="preserve" transform="matrix(1 0 -0 1 0 162.991)" font-size="8.9664" font-family="Computer Modern" font-style="italic"><tspan y="-79.254" x="397.99055 401.9806 406.07826 410.96495">c,ab</tspan></text>
<text fill="#0000ff" xml:space="preserve" transform="matrix(1 0 -0 1 0 162.991)" font-size="8.9664" font-family="Computer Modern"><tspan y="-79.254" x="414.91017">)</tspan></text>
<path transform="matrix(1,0,0,-1,341.789,81.495998)" d="M-22.5557-42.5189C-22.5557-41.41844-23.44778-40.52635-24.54825-40.52635-25.64873-40.52635-26.5408-41.41844-26.5408-42.5189-26.5408-43.61938-25.64873-44.51146-24.54825-44.51146-23.44778-44.51146-22.5557-43.61938-22.5557-42.5189ZM-24.54825-42.5189" fill="#ff0000"/>
<path transform="matrix(1,0,0,-1,341.789,81.495998)" stroke-width=".3985" stroke-linecap="butt" stroke-miterlimit="10" stroke-linejoin="miter" fill="none" stroke="#ff0000" d="M-22.5557-42.5189C-22.5557-41.41844-23.44778-40.52635-24.54825-40.52635-25.64873-40.52635-26.5408-41.41844-26.5408-42.5189-26.5408-43.61938-25.64873-44.51146-24.54825-44.51146-23.44778-44.51146-22.5557-43.61938-22.5557-42.5189ZM-24.54825-42.5189"/>
<text fill="#ff0000" xml:space="preserve" transform="matrix(1 0 -0 1 0 162.991)" font-size="8.9664" font-family="Computer Modern"><tspan y="-28.732" x="289.637">(</tspan></text>
<text fill="#ff0000" xml:space="preserve" transform="matrix(1 0 -0 1 0 162.991)" font-size="8.9664" font-family="Computer Modern" font-style="italic"><tspan y="-28.732" x="293.22355 297.16877 301.26643 306.1531">b,ac</tspan></text>
<text fill="#ff0000" xml:space="preserve" transform="matrix(1 0 -0 1 0 162.991)" font-size="8.9664" font-family="Computer Modern"><tspan y="-28.732" x="310.14317">)</tspan></text>
<path transform="matrix(1,0,0,-1,341.789,81.495998)" d="M-47.10396 0C-47.10396 1.10046-47.99605 1.99255-49.09651 1.99255-50.19699 1.99255-51.08907 1.10046-51.08907 0-51.08907-1.10046-50.19699-1.99255-49.09651-1.99255-47.99605-1.99255-47.10396-1.10046-47.10396 0ZM-49.09651 0" fill="#0000ff"/>
<path transform="matrix(1,0,0,-1,341.789,81.495998)" stroke-width=".3985" stroke-linecap="butt" stroke-miterlimit="10" stroke-linejoin="miter" fill="none" stroke="#0000ff" d="M-47.10396 0C-47.10396 1.10046-47.99605 1.99255-49.09651 1.99255-50.19699 1.99255-51.08907 1.10046-51.08907 0-51.08907-1.10046-50.19699-1.99255-49.09651-1.99255-47.99605-1.99255-47.10396-1.10046-47.10396 0ZM-49.09651 0"/>
<text fill="#0000ff" xml:space="preserve" transform="matrix(1 0 -0 1 0 162.991)" font-size="8.9664" font-family="Computer Modern"><tspan y="-79.254" x="265.089">(</tspan></text>
<text fill="#0000ff" xml:space="preserve" transform="matrix(1 0 -0 1 0 162.991)" font-size="8.9664" font-family="Computer Modern" font-style="italic"><tspan y="-79.254" x="268.67555 273.56224 277.50746 281.6051">ab,c</tspan></text>
<text fill="#0000ff" xml:space="preserve" transform="matrix(1 0 -0 1 0 162.991)" font-size="8.9664" font-family="Computer Modern"><tspan y="-79.254" x="285.59516">)</tspan></text>
<path transform="matrix(1,0,0,-1,341.789,81.495998)" d="M37.42604-61.3728C37.42604-60.27232 36.53397-59.38025 35.43349-59.38025 34.33302-59.38025 33.44093-60.27232 33.44093-61.3728 33.44093-62.47327 34.33302-63.36536 35.43349-63.36536 36.53397-63.36536 37.42604-62.47327 37.42604-61.3728ZM35.43349-61.3728" fill="#800080"/>
<path transform="matrix(1,0,0,-1,341.789,81.495998)" stroke-width=".3985" stroke-linecap="butt" stroke-miterlimit="10" stroke-linejoin="miter" fill="none" stroke="#800080" d="M37.42604-61.3728C37.42604-60.27232 36.53397-59.38025 35.43349-59.38025 34.33302-59.38025 33.44093-60.27232 33.44093-61.3728 33.44093-62.47327 34.33302-63.36536 35.43349-63.36536 36.53397-63.36536 37.42604-62.47327 37.42604-61.3728ZM35.43349-61.3728"/>
<text fill="#800080" xml:space="preserve" transform="matrix(1 0 -0 1 0 162.991)" font-size="9.9626" font-family="Computer Modern"><tspan y="-9.132" x="380.741">(</tspan></text>
<text fill="#800080" xml:space="preserve" transform="matrix(1 0 -0 1 0 162.991)" font-size="9.9626" font-family="Computer Modern" font-style="italic"><tspan y="-9.132" x="384.61647 389.25904 393.69239">e,a</tspan></text>
<text fill="#800080" xml:space="preserve" transform="matrix(1 0 -0 1 0 162.991)" font-size="9.9626" font-family="Computer Modern"><tspan y="-9.132" x="398.9626">)</tspan></text>
<path transform="matrix(1,0,0,-1,341.789,81.495998)" d="M-33.44093 61.3728C-33.44093 62.47327-34.33302 63.36536-35.43349 63.36536-36.53397 63.36536-37.42604 62.47327-37.42604 61.3728-37.42604 60.27232-36.53397 59.38025-35.43349 59.38025-34.33302 59.38025-33.44093 60.27232-33.44093 61.3728ZM-35.43349 61.3728" fill="#800080"/>
<path transform="matrix(1,0,0,-1,341.789,81.495998)" stroke-width=".3985" stroke-linecap="butt" stroke-miterlimit="10" stroke-linejoin="miter" fill="none" stroke="#800080" d="M-33.44093 61.3728C-33.44093 62.47327-34.33302 63.36536-35.43349 63.36536-36.53397 63.36536-37.42604 62.47327-37.42604 61.3728-37.42604 60.27232-36.53397 59.38025-35.43349 59.38025-34.33302 59.38025-33.44093 60.27232-33.44093 61.3728ZM-35.43349 61.3728"/>
<text fill="#800080" xml:space="preserve" transform="matrix(1 0 -0 1 0 162.991)" font-size="9.9626" font-family="Computer Modern"><tspan y="-148.878" x="280.754">(</tspan></text>
<text fill="#800080" xml:space="preserve" transform="matrix(1 0 -0 1 0 162.991)" font-size="9.9626" font-family="Computer Modern" font-style="italic"><tspan y="-148.878" x="284.62947 289.89967 294.333">a,e</tspan></text>
<text fill="#800080" xml:space="preserve" transform="matrix(1 0 -0 1 0 162.991)" font-size="9.9626" font-family="Computer Modern"><tspan y="-148.878" x="298.9756">)</tspan></text>
<path transform="matrix(1,0,0,-1,341.789,81.495998)" d="M19.70929-59.0332C19.70929-57.93272 18.81721-57.04065 17.71674-57.04065 16.61627-57.04065 15.72418-57.93272 15.72418-59.0332 15.72418-60.13367 16.61627-61.02576 17.71674-61.02576 18.81721-61.02576 19.70929-60.13367 19.70929-59.0332ZM17.71674-59.0332" fill="#ff0000"/>
<path transform="matrix(1,0,0,-1,341.789,81.495998)" stroke-width=".3985" stroke-linecap="butt" stroke-miterlimit="10" stroke-linejoin="miter" fill="none" stroke="#ff0000" d="M19.70929-59.0332C19.70929-57.93272 18.81721-57.04065 17.71674-57.04065 16.61627-57.04065 15.72418-57.93272 15.72418-59.0332 15.72418-60.13367 16.61627-61.02576 17.71674-61.02576 18.81721-61.02576 19.70929-60.13367 19.70929-59.0332ZM17.71674-59.0332"/>
<text fill="#ff0000" xml:space="preserve" transform="matrix(1 0 -0 1 0 162.991)" font-size="8.9664" font-family="Computer Modern"><tspan y="-12.218" x="347.316">(</tspan></text>
<text fill="#ff0000" xml:space="preserve" transform="matrix(1 0 -0 1 0 162.991)" font-size="8.9664" font-family="Computer Modern" font-style="italic"><tspan y="-12.218" x="350.90257 354.84779 359.13374 363.23139">be,a</tspan></text>
<text fill="#ff0000" xml:space="preserve" transform="matrix(1 0 -0 1 0 162.991)" font-size="8.9664" font-family="Computer Modern"><tspan y="-12.218" x="368.11808">)</tspan></text>
<path transform="matrix(1,0,0,-1,341.789,81.495998)" d="M44.25842-44.8598C44.25842-43.75932 43.36635-42.86725 42.26587-42.86725 41.1654-42.86725 40.27332-43.75932 40.27332-44.8598 40.27332-45.96027 41.1654-46.85236 42.26587-46.85236 43.36635-46.85236 44.25842-45.96027 44.25842-44.8598ZM42.26587-44.8598" fill="#0000ff"/>
<path transform="matrix(1,0,0,-1,341.789,81.495998)" stroke-width=".3985" stroke-linecap="butt" stroke-miterlimit="10" stroke-linejoin="miter" fill="none" stroke="#0000ff" d="M44.25842-44.8598C44.25842-43.75932 43.36635-42.86725 42.26587-42.86725 41.1654-42.86725 40.27332-43.75932 40.27332-44.8598 40.27332-45.96027 41.1654-46.85236 42.26587-46.85236 43.36635-46.85236 44.25842-45.96027 44.25842-44.8598ZM42.26587-44.8598"/>
<text fill="#0000ff" xml:space="preserve" transform="matrix(1 0 -0 1 0 162.991)" font-size="8.9664" font-family="Computer Modern"><tspan y="-34.395" x="387.574">(</tspan></text>
<text fill="#0000ff" xml:space="preserve" transform="matrix(1 0 -0 1 0 162.991)" font-size="8.9664" font-family="Computer Modern" font-style="italic"><tspan y="-34.395" x="391.16056 395.1506 399.43656 403.5342">ce,a</tspan></text>
<text fill="#0000ff" xml:space="preserve" transform="matrix(1 0 -0 1 0 162.991)" font-size="8.9664" font-family="Computer Modern"><tspan y="-34.395" x="408.4209">)</tspan></text>
<path transform="matrix(1,0,0,-1,341.789,81.495998)" d="M-15.72418 59.0332C-15.72418 60.13367-16.61627 61.02576-17.71674 61.02576-18.81721 61.02576-19.70929 60.13367-19.70929 59.0332-19.70929 57.93272-18.81721 57.04065-17.71674 57.04065-16.61627 57.04065-15.72418 57.93272-15.72418 59.0332ZM-17.71674 59.0332" fill="#ff0000"/>
<path transform="matrix(1,0,0,-1,341.789,81.495998)" stroke-width=".3985" stroke-linecap="butt" stroke-miterlimit="10" stroke-linejoin="miter" fill="none" stroke="#ff0000" d="M-15.72418 59.0332C-15.72418 60.13367-16.61627 61.02576-17.71674 61.02576-18.81721 61.02576-19.70929 60.13367-19.70929 59.0332-19.70929 57.93272-18.81721 57.04065-17.71674 57.04065-16.61627 57.04065-15.72418 57.93272-15.72418 59.0332ZM-17.71674 59.0332"/>
<text fill="#ff0000" xml:space="preserve" transform="matrix(1 0 -0 1 0 162.991)" font-size="8.9664" font-family="Computer Modern"><tspan y="-146.289" x="311.883">(</tspan></text>
<text fill="#ff0000" xml:space="preserve" transform="matrix(1 0 -0 1 0 162.991)" font-size="8.9664" font-family="Computer Modern" font-style="italic"><tspan y="-146.289" x="315.46955 320.35624 324.4539 328.3991">a,be</tspan></text>
<text fill="#ff0000" xml:space="preserve" transform="matrix(1 0 -0 1 0 162.991)" font-size="8.9664" font-family="Computer Modern"><tspan y="-146.289" x="332.68507">)</tspan></text>
<path transform="matrix(1,0,0,-1,341.789,81.495998)" d="M-40.27332 44.8598C-40.27332 45.96027-41.1654 46.85236-42.26587 46.85236-43.36635 46.85236-44.25842 45.96027-44.25842 44.8598-44.25842 43.75932-43.36635 42.86725-42.26587 42.86725-41.1654 42.86725-40.27332 43.75932-40.27332 44.8598ZM-42.26587 44.8598" fill="#0000ff"/>
<path transform="matrix(1,0,0,-1,341.789,81.495998)" stroke-width=".3985" stroke-linecap="butt" stroke-miterlimit="10" stroke-linejoin="miter" fill="none" stroke="#0000ff" d="M-40.27332 44.8598C-40.27332 45.96027-41.1654 46.85236-42.26587 46.85236-43.36635 46.85236-44.25842 45.96027-44.25842 44.8598-44.25842 43.75932-43.36635 42.86725-42.26587 42.86725-41.1654 42.86725-40.27332 43.75932-40.27332 44.8598ZM-42.26587 44.8598"/>
<text fill="#0000ff" xml:space="preserve" transform="matrix(1 0 -0 1 0 162.991)" font-size="8.9664" font-family="Computer Modern"><tspan y="-124.113" x="271.585">(</tspan></text>
<text fill="#0000ff" xml:space="preserve" transform="matrix(1 0 -0 1 0 162.991)" font-size="8.9664" font-family="Computer Modern" font-style="italic"><tspan y="-124.113" x="275.17155 280.05824 284.15589 288.14595">a,ce</tspan></text>
<text fill="#0000ff" xml:space="preserve" transform="matrix(1 0 -0 1 0 162.991)" font-size="8.9664" font-family="Computer Modern"><tspan y="-124.113" x="292.4319">)</tspan></text>
<path transform="matrix(1,0,0,-1,33.346,101.44099)" stroke-width=".3985" stroke-linecap="butt" stroke-miterlimit="10" stroke-linejoin="miter" fill="none" stroke="#000000" d="M0 28.3468 24.5491-14.17339H-24.5491L0 28.3468"/>
<path transform="matrix(1,0,0,-1,33.346,101.44099)" stroke-width=".3985" stroke-linecap="butt" stroke-miterlimit="10" stroke-linejoin="miter" fill="none" stroke="#000000" d="M0 56.69362V28.3468"/>
<path transform="matrix(1,0,0,-1,33.346,101.44099)" d="M1.99255 28.3468C1.99255 29.44728 1.10046 30.33936 0 30.33936-1.10046 30.33936-1.99255 29.44728-1.99255 28.3468-1.99255 27.24634-1.10046 26.35425 0 26.35425 1.10046 26.35425 1.99255 27.24634 1.99255 28.3468ZM0 28.3468"/>
<path transform="matrix(1,0,0,-1,33.346,101.44099)" stroke-width=".3985" stroke-linecap="butt" stroke-miterlimit="10" stroke-linejoin="miter" fill="none" stroke="#000000" d="M1.99255 28.3468C1.99255 29.44728 1.10046 30.33936 0 30.33936-1.10046 30.33936-1.99255 29.44728-1.99255 28.3468-1.99255 27.24634-1.10046 26.35425 0 26.35425 1.10046 26.35425 1.99255 27.24634 1.99255 28.3468ZM0 28.3468"/>
<text xml:space="preserve" transform="matrix(1 0 -0 1 0 162.99098)" font-size="9.9626" font-family="Computer Modern" font-style="italic"><tspan y="-87.752" x="36.865">a</tspan></text>
<path transform="matrix(1,0,0,-1,33.346,101.44099)" d="M26.54166-14.17339C26.54166-13.07292 25.64958-12.18083 24.5491-12.18083 23.44864-12.18083 22.55655-13.07292 22.55655-14.17339 22.55655-15.27386 23.44864-16.16594 24.5491-16.16594 25.64958-16.16594 26.54166-15.27386 26.54166-14.17339ZM24.5491-14.17339"/>
<path transform="matrix(1,0,0,-1,33.346,101.44099)" stroke-width=".3985" stroke-linecap="butt" stroke-miterlimit="10" stroke-linejoin="miter" fill="none" stroke="#000000" d="M26.54166-14.17339C26.54166-13.07292 25.64958-12.18083 24.5491-12.18083 23.44864-12.18083 22.55655-13.07292 22.55655-14.17339 22.55655-15.27386 23.44864-16.16594 24.5491-16.16594 25.64958-16.16594 26.54166-15.27386 26.54166-14.17339ZM24.5491-14.17339"/>
<text xml:space="preserve" transform="matrix(1 0 -0 1 0 162.99098)" font-size="9.9626" font-family="Computer Modern" font-style="italic"><tspan y="-36.939" x="55.757">b</tspan></text>
<path transform="matrix(1,0,0,-1,33.346,101.44099)" d="M-22.55655-14.17339C-22.55655-13.07292-23.44864-12.18083-24.5491-12.18083-25.64958-12.18083-26.54166-13.07292-26.54166-14.17339-26.54166-15.27386-25.64958-16.16594-24.5491-16.16594-23.44864-16.16594-22.55655-15.27386-22.55655-14.17339ZM-24.5491-14.17339"/>
<path transform="matrix(1,0,0,-1,33.346,101.44099)" stroke-width=".3985" stroke-linecap="butt" stroke-miterlimit="10" stroke-linejoin="miter" fill="none" stroke="#000000" d="M-22.55655-14.17339C-22.55655-13.07292-23.44864-12.18083-24.5491-12.18083-25.64958-12.18083-26.54166-13.07292-26.54166-14.17339-26.54166-15.27386-25.64958-16.16594-24.5491-16.16594-23.44864-16.16594-22.55655-15.27386-22.55655-14.17339ZM-24.5491-14.17339"/>
<text xml:space="preserve" transform="matrix(1 0 -0 1 .0000009536743 162.991)" font-size="9.9626" font-family="Computer Modern" font-style="italic"><tspan y="-39.568" x="6.641">c</tspan></text>
<path transform="matrix(1,0,0,-1,33.346,101.44099)" d="M1.99255 56.69362C1.99255 57.79408 1.10046 58.68617 0 58.68617-1.10046 58.68617-1.99255 57.79408-1.99255 56.69362-1.99255 55.59314-1.10046 54.70107 0 54.70107 1.10046 54.70107 1.99255 55.59314 1.99255 56.69362ZM0 56.69362"/>
<path transform="matrix(1,0,0,-1,33.346,101.44099)" stroke-width=".3985" stroke-linecap="butt" stroke-miterlimit="10" stroke-linejoin="miter" fill="none" stroke="#000000" d="M1.99255 56.69362C1.99255 57.79408 1.10046 58.68617 0 58.68617-1.10046 58.68617-1.99255 57.79408-1.99255 56.69362-1.99255 55.59314-1.10046 54.70107 0 54.70107 1.10046 54.70107 1.99255 55.59314 1.99255 56.69362ZM0 56.69362"/>
<text xml:space="preserve" transform="matrix(1 0 -0 1 .0000019073487 162.99098)" font-size="9.9626" font-family="Computer Modern" font-style="italic"><tspan y="-121.763" x="31.026">e</tspan></text>
<path transform="matrix(1,0,0,-1,33.346,101.44099)" stroke-width=".79701" stroke-linecap="butt" stroke-miterlimit="10" stroke-linejoin="miter" fill="none" stroke="#0000ff" d="M-2.83484 56.69362V28.3468L-27.38397-14.17339"/>
<path transform="matrix(1,0,0,-1,33.346,101.44099)" stroke-width=".79701" stroke-linecap="butt" stroke-miterlimit="10" stroke-linejoin="miter" fill="none" stroke="#ff0000" d="M2.83484 56.69362V28.3468L27.38397-14.17339"/>
<path transform="matrix(1,0,0,-1,33.346,101.44099)" stroke-width=".79701" stroke-linecap="butt" stroke-miterlimit="10" stroke-linejoin="miter" fill="none" stroke="#0000ff" d="M-24.5491-11.33855H24.5491"/>
<path transform="matrix(1,0,0,-1,33.346,101.44099)" stroke-width=".79701" stroke-linecap="butt" stroke-miterlimit="10" stroke-linejoin="miter" fill="none" stroke="#ff0000" d="M-24.5491-17.00824H24.5491"/>
</svg>
